<?xml version="1.0" encoding="utf-8"?>
<!-- Generator: Adobe Illustrator 21.1.0, SVG Export Plug-In . SVG Version: 6.00 Build 0)  -->
<svg version="1.1" id="Lager_1" xmlns="http://www.w3.org/2000/svg" xmlns:xlink="http://www.w3.org/1999/xlink" x="0px" y="0px"
	 viewBox="0 0 694.9 137.3" enable-background="new 0 0 694.9 137.3" xml:space="preserve">
<g>
	<path fill="#FFFFFF" d="M64,80.4c1.9,0,3.2-0.2,4.3-0.6v-4h-6.8v-5.1h11.6v12.5c-3,1.5-6,2-9.4,2c-7.6,0-13.4-5-13.4-13.7
		c0-7,4.4-13.7,12.4-13.7c4.9,0,8.2,2,10.9,5.7L70,67.1c-2.1-3.1-4.2-4.3-7.1-4.3c-4.7,0-7.3,4.4-7.3,8.8
		C55.5,76.9,59.2,80.4,64,80.4z"/>
	<path fill="#FFFFFF" d="M87.1,84.8V58.4H92v21.3h13.2v5H87.1z"/>
	<path fill="#FFFFFF" d="M114.1,71.6c0-7.2,5-13.6,12.7-13.6c7.7,0,12.7,6.5,12.7,13.7c0,7.2-5,13.6-12.7,13.6
		C119.1,85.3,114.1,78.8,114.1,71.6z M134.4,71.6c0-4.7-2.7-8.9-7.5-8.9c-4.8,0-7.6,4.1-7.6,8.8c0,4.7,2.7,8.9,7.6,8.9
		C131.7,80.4,134.4,76.3,134.4,71.6z"/>
	<path fill="#FFFFFF" d="M173.7,84.8V67l-5.9,10.4h-4.1l-6-10.6v18h-4.8V58.4h6.1l6.8,12.5l6.8-12.5h6.1v26.3H173.7z"/>
	<path fill="#FFFFFF" d="M214.6,84.8V67l-5.9,10.4h-4.1l-6-10.6v18h-4.8V58.4h6.1l6.8,12.5l6.8-12.5h6.1v26.3H214.6z"/>
	<path fill="#FFFFFF" d="M234.6,84.8V58.4h17.6v5h-12.7V68H251v5.1h-11.5v6.7H253v5H234.6z"/>
	<path fill="#FFFFFF" d="M283.7,84.8l-12-18.6v18.6h-4.8V58.4h6.3l12,18.8V58.4h4.8v26.3H283.7z"/>
	<path fill="#FFFFFF" d="M397.2,84.8V58.4h4.8v21.3h13.2v5H397.2z"/>
	<path fill="#FFFFFF" d="M428.7,84.8V58.4h4.8v26.3H428.7z"/>
	<path fill="#FFFFFF" d="M465.5,84.8l-12-18.6v18.6h-4.8V58.4h6.3l12,18.8V58.4h4.8v26.3H465.5z"/>
	<path fill="#FFFFFF" d="M496.8,84.8H487V58.4h9.8c9.3,0,13.6,6,13.6,13.1C510.4,78.8,505.8,84.8,496.8,84.8z M496.6,63.5h-4.7v16.2
		h4.7c5.8,0,8.6-3.5,8.6-8.1C505.2,66.8,502,63.5,496.6,63.5z"/>
	<path fill="#FFFFFF" d="M534.5,84.8h-10.7V58.4h10.9c4.6,0,8.9,2,8.9,7.6c0,2.1-1.1,4.1-2.7,5.4c2.7,0.9,3.9,3.3,3.9,5.7
		C544.9,82.7,540.2,84.8,534.5,84.8z M534.4,63.5h-5.7v5.6h5.7c2.7,0,4.1-1,4.1-2.8C538.5,64.6,537.1,63.5,534.4,63.5z M534.1,74.2
		h-5.4v5.6h5.6c3.8,0,5.5-0.7,5.5-2.9C539.7,75,537.7,74.2,534.1,74.2z"/>
	<path fill="#FFFFFF" d="M558.3,84.8V58.4h17.6v5h-12.7V68h11.5v5.1h-11.5v6.7h13.5v5H558.3z"/>
	<path fill="#FFFFFF" d="M606,84.8l-6.5-9.6h-4.1v9.6h-4.8V58.4h10.5c5.4,0,9.3,2.9,9.3,8.1c0,4.3-2.8,6.8-5.6,7.8l7.3,10.5H606z
		 M601,63.5h-5.6v6.6h5.4c2.9,0,4.5-1.2,4.5-3.6C605.2,64.5,603.7,63.5,601,63.5z"/>
	<path fill="#FFFFFF" d="M636.3,80.4c1.9,0,3.2-0.2,4.3-0.6v-4h-6.8v-5.1h11.6v12.5c-3,1.5-6,2-9.4,2c-7.6,0-13.4-5-13.4-13.7
		c0-7,4.4-13.7,12.4-13.7c4.9,0,8.2,2,10.9,5.7l-3.7,3.5c-2.1-3.1-4.2-4.3-7.1-4.3c-4.7,0-7.3,4.4-7.3,8.8
		C627.9,76.9,631.5,80.4,636.3,80.4z"/>
</g>
<g>
	<path fill="#FFFFFF" d="M378.5,34.9h-69.8c-1.4,0-2.5,1.2-2.4,2.6l2.9,56.8c0.1,1.4,1.1,3.3,2.2,4.1l30.2,23c1.1,0.9,3,0.9,4.1,0
		l30.2-23c1.1-0.9,2.1-2.7,2.2-4.1l2.9-56.8C381,36.1,379.9,34.9,378.5,34.9z M343.4,117.7l-30-22.9c-0.1-0.1-0.2-0.1-0.1-0.2
		l-2.9-55.2c0-0.2,0.1-0.3,0.3-0.3h65.5c0.4,0,0.5,0.1,0.5,0.4l-1.4,27.9c-10,5.4-21.4,13.6-29.5,21.5c-0.1,0.1-0.2,0-0.1-0.1
		c7-14.7,18-40.8,19.4-44.7c0.6-1.3,1.1-4-2.5-2.8c-2.2,0.8-10.3,3.8-22.6,14c-7.9,6.6-15.6,16.4-15.6,16.4
		c-4.5,5.8-8.1,13.1-6.7,20.6c0.9,4.7,5.6,7.6,10.2,5.8c4.3-1.7,7.3-6,9.7-9.7c3.3-5.2,5.4-10.4,5.5-10.6l1-2.4l-8.6,0l0,3.5l3.3,0
		c-1.4,3.1-3,6.1-4.9,8.9c-1.8,2.8-5.1,7.8-9.2,7c-4.3-0.9-3.7-7-2.9-10.1c1.3-4.4,4-8.2,6.6-11.9c3.9-5.5,8.6-10.4,13.7-14.8
		c8-6.7,14.1-10.2,17.8-11.9c0.1,0,0.1,0,0.1,0.1c-1.4,2.9-2.7,5.8-4,8.7c-1.7,3.8-3.4,7.7-5,11.5c-1.7,4-3.5,8-5.2,12.1
		c-1.5,3.5-3,7-4.5,10.4c-0.9,2.2-1.9,4.4-2.9,6.6c-0.4,0.8-0.4,1.9,0.3,2.5c1.4,1.3,3.1-0.3,4.1-1.2c1.1-1.1,2.3-2.1,3.4-3.1
		c3.4-3,6.8-6,10.3-8.8c4-3.3,8.2-6.5,12.5-9.5c1-0.7,2-1.3,2.9-2c0.5-0.3,1-0.6,1.5-0.9c0.2-0.1,1.4-0.7,1.4-0.9l-1.3,23.1
		c0,0.2-0.1,0.3-0.2,0.4l-30,22.8C343.6,117.8,343.5,117.8,343.4,117.7z"/>
</g>
</svg>
